<?xml version="1.0" encoding="UTF-8" standalone="no"?>
<!-- Generator: Adobe Illustrator 15.1.0, SVG Export Plug-In . SVG Version: 6.00 Build 0)  -->

<svg
   xmlns:dc="http://purl.org/dc/elements/1.1/"
   xmlns:cc="http://creativecommons.org/ns#"
   xmlns:rdf="http://www.w3.org/1999/02/22-rdf-syntax-ns#"
   xmlns:svg="http://www.w3.org/2000/svg"
   xmlns="http://www.w3.org/2000/svg"
   xmlns:sodipodi="http://sodipodi.sourceforge.net/DTD/sodipodi-0.dtd"
   xmlns:inkscape="http://www.inkscape.org/namespaces/inkscape"
   version="1.0"
   id="Layer_1"
   x="0px"
   y="0px"
   width="245"
   height="40"
   viewBox="0 0 245.00001 40.000002"
   enable-background="new 0 0 300.818 132.374"
   xml:space="preserve"
   inkscape:version="0.91 r13725"
   sodipodi:docname="groupon_logo.svg"><metadata
     id="metadata109"><rdf:RDF><cc:Work
         rdf:about=""><dc:format>image/svg+xml</dc:format><dc:type
           rdf:resource="http://purl.org/dc/dcmitype/StillImage" /><dc:title></dc:title></cc:Work></rdf:RDF></metadata><defs
     id="defs107" /><sodipodi:namedview
     pagecolor="#ffffff"
     bordercolor="#666666"
     borderopacity="1"
     objecttolerance="10"
     gridtolerance="10"
     guidetolerance="10"
     inkscape:pageopacity="0"
     inkscape:pageshadow="2"
     inkscape:window-width="2230"
     inkscape:window-height="1314"
     id="namedview105"
     showgrid="false"
     inkscape:zoom="1.7828275"
     inkscape:cx="113.1087"
     inkscape:cy="66.186996"
     inkscape:window-x="558"
     inkscape:window-y="88"
     inkscape:window-maximized="0"
     inkscape:current-layer="Layer_1" /><path
     display="none"
     d="m 243.878,-51.170993 0,0.318 -0.9,0 0,2.351 -0.365,0 0,-2.351 -0.898,0 0,-0.318 2.163,0 z"
     id="path3"
     inkscape:connector-curvature="0"
     style="display:none;fill:#b7b7b7" /><path
     display="none"
     d="m 244.202,-51.170993 0.518,0 0.768,2.258 0.762,-2.258 0.516,0 0,2.669 -0.347,0 0,-1.575 c 0,-0.055 0,-0.145 0.005,-0.27 0.002,-0.127 0.002,-0.261 0.002,-0.406 l -0.76,2.251 -0.361,0 -0.769,-2.251 0,0.082 c 0,0.064 0,0.164 0.009,0.298 0,0.135 0.003,0.233 0.003,0.296 l 0,1.575 -0.345,0 0,-2.669 z"
     id="path5"
     inkscape:connector-curvature="0"
     style="display:none;fill:#b7b7b7" /><g
     style="fill:#84c044;fill-opacity:1"
     id="g24"
     transform="matrix(0.99938813,0,0,1.005303,-29.981644,-35.159466)"><g
       style="fill:#84c044;fill-opacity:1"
       id="g26"><g
         style="fill:#84c044;fill-opacity:1"
         id="g28"><linearGradient
           id="SVGID_2_"
           gradientUnits="userSpaceOnUse"
           x1="49.624001"
           y1="37.152302"
           x2="49.624001"
           y2="73.116402"><stop
             offset="0"
             style="stop-color:#FFFFFF"
             id="stop31" /><stop
             offset="1"
             style="stop-color:#DCDDDE"
             id="stop33" /></linearGradient><path
           d="m 49.65,74.638 c -5.577,0 -10.329,-2.034 -14.123,-6.046 -3.585,-3.798 -5.403,-8.551 -5.403,-14.127 0,-5.269 1.998,-10.023 5.776,-13.749 3.782,-3.727 8.444,-5.617 13.857,-5.617 8.196,0 15.166,4.953 18.233,12.94 l -10.479,0 c -2.358,-2.521 -4.885,-3.713 -7.861,-3.713 -5.59,0 -10.139,4.572 -10.139,10.191 0,5.905 4.643,10.894 10.139,10.894 3.667,0 6.847,-1.907 8.724,-5.231 l 0.105,-0.187 -11.019,0 0,-7.396 21.563,0 c 0.052,0.837 0.1,1.653 0.1,2.406 0,4.275 -1.067,7.916 -3.262,11.129 -3.659,5.326 -9.719,8.506 -16.211,8.506 z"
           id="path35"
           style="fill:#84c044;fill-opacity:1"
           inkscape:connector-curvature="0" /><path
           d="m 49.758,35.224 c 8.084,0 14.969,4.853 18.05,12.69 l -10.19,0 c -2.451,-2.533 -4.985,-3.713 -7.967,-3.713 -5.659,0 -10.264,4.628 -10.264,10.316 0,5.973 4.7,11.019 10.264,11.019 3.713,0 6.933,-1.93 8.833,-5.295 l 0.21,-0.373 -0.428,0 -10.68,0 0,-7.146 21.321,0 c 0.047,0.769 0.092,1.555 0.092,2.281 0,4.25 -1.06,7.867 -3.24,11.058 -3.636,5.292 -9.657,8.453 -16.108,8.453 -5.542,0 -10.263,-2.021 -14.032,-6.007 -3.563,-3.774 -5.369,-8.498 -5.369,-14.042 0,-5.234 1.984,-9.958 5.739,-13.659 3.758,-3.704 8.39,-5.582 13.769,-5.582 m 0,-0.25 c -5.437,0 -10.175,1.938 -13.945,5.653 C 32.045,44.342 30,49.188 30,54.465 c 0,5.653 1.83,10.392 5.437,14.213 3.769,3.985 8.561,6.085 14.214,6.085 6.515,0 12.652,-3.23 16.314,-8.561 2.208,-3.231 3.284,-6.892 3.284,-11.199 0,-0.807 -0.054,-1.669 -0.107,-2.531 l -21.807,0 0,7.646 10.93,0 c -1.885,3.338 -5.062,5.168 -8.615,5.168 -5.277,0 -10.014,-4.684 -10.014,-10.769 0,-5.491 4.415,-10.066 10.014,-10.066 3.015,0 5.492,1.237 7.861,3.713 l 10.661,0 C 65.103,39.981 57.942,34.974 49.758,34.974 l 0,0 z"
           id="path37"
           inkscape:connector-curvature="0"
           style="fill:#84c044;fill-opacity:1" /></g><g
         style="fill:#84c044;fill-opacity:1"
         id="g39"><linearGradient
           id="SVGID_3_"
           gradientUnits="userSpaceOnUse"
           x1="85.693398"
           y1="37.1558"
           x2="85.693398"
           y2="73.111504"><stop
             offset="0"
             style="stop-color:#FFFFFF"
             id="stop42" /><stop
             offset="1"
             style="stop-color:#DCDDDE"
             id="stop44" /></linearGradient><path
           d="m 88.381,73.884 -7.519,-12.662 0,12.662 -9.118,0 0,-38.032 12.582,0 c 4.233,0 7.165,0.34 9.618,2.079 3.396,2.369 5.117,5.939 5.117,10.612 0,6.156 -3.206,10.719 -8.576,12.208 l -0.172,0.048 9.331,13.086 -11.263,0 z m -7.519,-20.372 1.955,0 c 4.984,0 7.017,-1.377 7.017,-4.754 0,-3.178 -1.931,-4.595 -6.262,-4.595 l -2.709,0 0,9.349 z"
           id="path46"
           style="fill:#84c044;fill-opacity:1"
           inkscape:connector-curvature="0" /><path
           d="m 84.326,35.977 c 4.208,0 7.119,0.336 9.547,2.057 3.359,2.344 5.063,5.88 5.063,10.509 0,6.096 -3.172,10.615 -8.485,12.088 l -0.344,0.095 0.207,0.291 9.086,12.742 -10.948,0 -7.25,-12.208 -0.465,-0.783 0,0.911 0,12.081 -8.868,0 0,-37.783 12.457,0 m -3.589,17.66 0.25,0 1.83,0 c 5.006,0 7.142,-1.459 7.142,-4.879 0,-3.264 -1.97,-4.72 -6.387,-4.72 l -2.584,0 -0.25,0 0,0.25 0,9.099 0,0.25 m 3.588,-17.91 -12.707,0 0,38.282 9.368,0 0,-12.331 7.322,12.331 11.576,0 -9.368,-13.138 c 5.437,-1.507 8.668,-6.137 8.668,-12.329 0,-4.739 -1.776,-8.346 -5.169,-10.714 -2.584,-1.83 -5.653,-2.101 -9.69,-2.101 l 0,0 z m -3.339,17.66 0,-9.099 2.584,0 c 4.146,0 6.137,1.293 6.137,4.47 0,3.446 -2.261,4.629 -6.892,4.629 l -1.829,0 0,0 z"
           id="path48"
           inkscape:connector-curvature="0"
           style="fill:#84c044;fill-opacity:1" /></g><g
         style="fill:#84c044;fill-opacity:1"
         id="g50"><linearGradient
           id="SVGID_4_"
           gradientUnits="userSpaceOnUse"
           x1="120.3188"
           y1="37.152302"
           x2="120.3188"
           y2="73.114998"><stop
             offset="0"
             style="stop-color:#FFFFFF"
             id="stop53" /><stop
             offset="1"
             style="stop-color:#DCDDDE"
             id="stop55" /></linearGradient><path
           d="m 120.345,74.583 c -5.648,0 -10.417,-2.016 -14.176,-5.991 -3.586,-3.799 -5.404,-8.552 -5.404,-14.127 0,-5.27 1.998,-10.023 5.778,-13.749 3.745,-3.691 8.407,-5.563 13.857,-5.563 5.085,0 9.911,1.995 13.586,5.617 3.796,3.743 5.887,8.664 5.887,13.856 0,5.458 -1.906,10.306 -5.511,14.02 -3.669,3.829 -8.647,5.937 -14.017,5.937 z m 0.107,-30.204 c -5.776,0 -10.3,4.478 -10.3,10.193 0,5.846 4.668,10.784 10.193,10.784 5.75,0 10.086,-4.636 10.086,-10.784 0,-5.62 -4.477,-10.193 -9.979,-10.193 z"
           id="path57"
           style="fill:#84c044;fill-opacity:1"
           inkscape:connector-curvature="0" /><path
           d="m 120.399,35.278 c 5.052,0 9.846,1.982 13.499,5.582 3.772,3.719 5.849,8.608 5.849,13.767 0,5.424 -1.893,10.242 -5.477,13.934 -3.645,3.804 -8.59,5.898 -13.926,5.898 -5.612,0 -10.351,-2.003 -14.085,-5.952 -3.563,-3.775 -5.37,-8.499 -5.37,-14.042 0,-5.235 1.985,-9.958 5.74,-13.659 3.722,-3.668 8.355,-5.528 13.77,-5.528 m -0.054,30.203 c 5.821,0 10.211,-4.69 10.211,-10.909 0,-5.689 -4.532,-10.318 -10.104,-10.318 -5.846,0 -10.425,4.532 -10.425,10.318 0,5.914 4.725,10.909 10.318,10.909 m 0.054,-30.453 c -5.438,0 -10.176,1.884 -13.945,5.599 -3.77,3.715 -5.815,8.561 -5.815,13.837 0,5.653 1.831,10.392 5.438,14.213 3.768,3.985 8.614,6.03 14.267,6.03 5.33,0 10.392,-2.099 14.107,-5.976 3.607,-3.716 5.546,-8.615 5.546,-14.106 0,-5.222 -2.047,-10.123 -5.924,-13.945 -3.714,-3.659 -8.559,-5.652 -13.674,-5.652 l 0,0 z m -0.054,30.203 c -5.276,0 -10.068,-4.629 -10.068,-10.659 0,-5.601 4.469,-10.068 10.175,-10.068 5.384,0 9.854,4.468 9.854,10.068 0,6.244 -4.47,10.659 -9.961,10.659 l 0,0 z"
           id="path59"
           inkscape:connector-curvature="0"
           style="fill:#84c044;fill-opacity:1" /></g><g
         style="fill:#84c044;fill-opacity:1"
         id="g61"><linearGradient
           id="SVGID_5_"
           gradientUnits="userSpaceOnUse"
           x1="156.5"
           y1="37.1563"
           x2="156.5"
           y2="73.114502"><stop
             offset="0"
             style="stop-color:#FFFFFF"
             id="stop64" /><stop
             offset="1"
             style="stop-color:#DCDDDE"
             id="stop66" /></linearGradient><path
           d="m 156.312,74.475 c -8.748,0 -13.766,-5.39 -13.766,-14.788 l 0,-23.835 9.171,0 0,23.458 c 0,4.529 1.477,6.639 4.647,6.639 3.345,0 4.971,-2.171 4.971,-6.639 l 0,-23.458 9.118,0 0,23.835 c 0,9.122 -5.419,14.788 -14.141,14.788 z"
           id="path68"
           style="fill:#84c044;fill-opacity:1"
           inkscape:connector-curvature="0" /><path
           d="m 170.328,35.977 0,23.71 c 0,9.045 -5.371,14.663 -14.017,14.663 -8.669,0 -13.641,-5.345 -13.641,-14.663 l 0,-23.71 8.921,0 0,23.333 c 0,4.551 1.562,6.764 4.772,6.764 3.429,0 5.096,-2.212 5.096,-6.764 l 0,-23.333 8.869,0 m 0.25,-0.25 -9.368,0 0,23.583 c 0,4.36 -1.561,6.514 -4.846,6.514 -3.177,0 -4.522,-2.208 -4.522,-6.514 l 0,-23.583 -9.421,0 0,23.96 c 0,9.584 5.222,14.913 13.891,14.913 8.561,0 14.267,-5.544 14.267,-14.913 l 0,-23.96 -0.001,0 z"
           id="path70"
           inkscape:connector-curvature="0"
           style="fill:#84c044;fill-opacity:1" /></g><g
         style="fill:#84c044;fill-opacity:1"
         id="g72"><linearGradient
           id="SVGID_6_"
           gradientUnits="userSpaceOnUse"
           x1="187.06351"
           y1="37.1558"
           x2="187.06351"
           y2="73.111504"><stop
             offset="0"
             style="stop-color:#FFFFFF"
             id="stop75" /><stop
             offset="1"
             style="stop-color:#DCDDDE"
             id="stop77" /></linearGradient><path
           d="m 173.405,73.884 0,-38.032 12.582,0 c 4.233,0 7.165,0.34 9.618,2.079 3.396,2.37 5.116,5.958 5.116,10.666 0,4.833 -2.195,8.934 -6.023,11.252 -2.367,1.419 -5.336,1.704 -9.358,1.704 l -2.816,0 0,12.331 -9.119,0 z m 9.226,-20.372 1.848,0 c 4.983,0 7.017,-1.377 7.017,-4.754 0,-3.178 -1.932,-4.595 -6.263,-4.595 l -2.602,0 0,9.349 z"
           id="path79"
           style="fill:#84c044;fill-opacity:1"
           inkscape:connector-curvature="0" /><path
           d="m 185.987,35.977 c 4.209,0 7.12,0.336 9.547,2.057 3.359,2.344 5.063,5.898 5.063,10.563 0,4.788 -2.174,8.85 -5.963,11.145 -2.342,1.404 -5.293,1.687 -9.294,1.687 l -2.691,0 -0.25,0 0,0.25 0,12.081 -8.868,0 0,-37.783 12.456,0 m -3.481,17.66 0.25,0 1.723,0 c 5.006,0 7.142,-1.459 7.142,-4.879 0,-3.264 -1.97,-4.72 -6.388,-4.72 l -2.477,0 -0.25,0 0,0.25 0,9.099 0,0.25 m 3.481,-17.91 -12.707,0 0,38.282 9.368,0 0,-12.331 2.691,0 c 3.984,0 6.999,-0.269 9.423,-1.722 3.822,-2.315 6.084,-6.406 6.084,-11.359 0,-4.793 -1.776,-8.4 -5.169,-10.768 -2.583,-1.831 -5.653,-2.102 -9.69,-2.102 l 0,0 z m -3.231,17.66 0,-9.099 2.477,0 c 4.146,0 6.138,1.293 6.138,4.47 0,3.446 -2.261,4.629 -6.892,4.629 l -1.723,0 0,0 z"
           id="path81"
           inkscape:connector-curvature="0"
           style="fill:#84c044;fill-opacity:1" /></g><g
         style="fill:#84c044;fill-opacity:1"
         id="g83"><linearGradient
           id="SVGID_7_"
           gradientUnits="userSpaceOnUse"
           x1="221.7637"
           y1="37.152302"
           x2="221.7637"
           y2="73.114998"><stop
             offset="0"
             style="stop-color:#FFFFFF"
             id="stop86" /><stop
             offset="1"
             style="stop-color:#DCDDDE"
             id="stop88" /></linearGradient><path
           d="m 221.79,74.583 c -5.648,0 -10.418,-2.016 -14.176,-5.991 -3.586,-3.799 -5.404,-8.552 -5.404,-14.127 0,-5.269 1.998,-10.023 5.777,-13.749 3.746,-3.691 8.408,-5.563 13.857,-5.563 5.085,0 9.91,1.995 13.586,5.617 3.796,3.743 5.887,8.664 5.887,13.856 0,5.458 -1.905,10.306 -5.511,14.02 -3.668,3.829 -8.646,5.937 -14.016,5.937 z m 0.107,-30.204 c -5.775,0 -10.3,4.478 -10.3,10.193 0,5.846 4.668,10.784 10.192,10.784 5.75,0 10.086,-4.636 10.086,-10.784 0.001,-5.62 -4.476,-10.193 -9.978,-10.193 z"
           id="path90"
           style="fill:#84c044;fill-opacity:1"
           inkscape:connector-curvature="0" /><path
           d="m 221.845,35.278 c 5.052,0 9.846,1.982 13.498,5.582 3.827,3.772 5.85,8.533 5.85,13.767 0,5.424 -1.894,10.242 -5.477,13.934 -3.645,3.804 -8.59,5.898 -13.926,5.898 -5.612,0 -10.352,-2.003 -14.085,-5.952 -3.563,-3.775 -5.37,-8.499 -5.37,-14.042 0,-5.234 1.984,-9.958 5.74,-13.659 3.722,-3.668 8.355,-5.528 13.77,-5.528 m -0.055,30.203 c 5.821,0 10.211,-4.69 10.211,-10.909 0,-5.689 -4.532,-10.318 -10.104,-10.318 -5.846,0 -10.425,4.532 -10.425,10.318 0.001,5.914 4.725,10.909 10.318,10.909 m 0.055,-30.453 c -5.438,0 -10.176,1.884 -13.945,5.599 -3.769,3.715 -5.814,8.561 -5.814,13.837 0,5.653 1.831,10.392 5.438,14.213 3.768,3.985 8.613,6.03 14.267,6.03 5.33,0 10.392,-2.099 14.106,-5.976 3.607,-3.716 5.546,-8.615 5.546,-14.106 0,-5.222 -2.047,-10.123 -5.924,-13.945 -3.715,-3.659 -8.559,-5.652 -13.674,-5.652 l 0,0 z m -0.055,30.203 c -5.276,0 -10.067,-4.629 -10.067,-10.659 0,-5.601 4.469,-10.068 10.175,-10.068 5.385,0 9.854,4.468 9.854,10.068 -0.001,6.244 -4.47,10.659 -9.962,10.659 l 0,0 z"
           id="path92"
           inkscape:connector-curvature="0"
           style="fill:#84c044;fill-opacity:1" /></g><g
         style="fill:#84c044;fill-opacity:1"
         id="g94"><linearGradient
           id="SVGID_8_"
           gradientUnits="userSpaceOnUse"
           x1="259.2139"
           y1="37.1558"
           x2="259.2139"
           y2="73.111504"><stop
             offset="0"
             style="stop-color:#FFFFFF"
             id="stop97" /><stop
             offset="1"
             style="stop-color:#DCDDDE"
             id="stop99" /></linearGradient><polygon
           points="275.025,35.852 275.025,73.884 266.979,73.884 252.521,52.276 252.521,73.884 243.402,73.884 243.402,35.852 251.662,35.852 265.907,57.41 265.907,35.852 "
           id="polygon101"
           style="fill:#84c044;fill-opacity:1" /><path
           d="m 274.9,35.977 0,37.782 -7.854,0 -14.193,-21.21 -0.458,-0.684 0,0.823 0,21.071 -8.868,0 0,-37.782 8.067,0 13.979,21.155 0.459,0.694 0,-0.832 0,-21.017 8.868,0 m 0.25,-0.25 -9.368,0 0,21.267 -14.053,-21.267 -8.452,0 0,38.282 9.368,0 0,-21.321 14.268,21.321 8.237,0 0,-38.282 0,0 z"
           id="path103"
           inkscape:connector-curvature="0"
           style="fill:#84c044;fill-opacity:1" /></g></g></g></svg>