<svg xmlns="http://www.w3.org/2000/svg" width="360" height="150" viewBox="0 0 360 150"><g fill="#ff4200"><path d="M32.466 13.99c0 5.04-4.553 9.128-10.17 9.128-5.614 0-10.167-4.088-10.167-9.13 0-5.04 4.55-9.128 10.166-9.128 5.617 0 10.17 4.088 10.17 9.13M7.498 36.87l6.24-9.707s8.782 6.816 11.44 9.13c2.658 2.31 7.396 6.24 7.28 12.594-.116 6.355-1.965 11.902-3.467 15.716-1.5 3.813-11.322 23.92-11.322 23.92l-15.023-9.36S17.093 65.798 22.637 57.67c1.733-2.544 3.812-9.245-2.08-12.713C14.663 41.49 7.5 36.867 7.5 36.867m19.296-5.777S35 25.777 43.09 3.59c2.31.807 13.98 3.927 13.98 3.927l-3.813 7.05s17.45-5.316 32.47-5.316c0 0 8.206-.344 14.562 1.736 6.354 2.08 12.826 6.356 14.443 13.29 1.618 6.93 3.35 30.044.115 50.957 0 0-.694 4.855-5.2 9.13-4.507 4.275-9.938 6.355-19.53 6.355-9.59 0-14.675-1.848-14.675-1.848l1.965-8.09s5.893 2.195 10.515 2.195c4.622 0 8.55-1.964 10.63-4.39 0 0 1.85-2.774 1.966-5.085.115-2.31.23-46.684-.23-48.186-.464-1.503-1.04-7.165-8.206-8.552-7.164-1.386-12.827-.462-14.56-.115-1.733.347-12.595 3.004-18.027 5.2 2.08.693 6.125 1.733 6.125 1.733s-1.848 3.814-5.2 7.51c4.623-.114 35.36 0 35.36 0v6.935h-19.76v9.244h19.53v6.93h-19.53v14.675s3.235 0 7.973-3.697c-.346-2.543-.23-2.89-1.386-6.588 3.004-.692 9.012-2.772 9.012-2.772l7.512 18.605-11.21 4.39-2.08-7.51s-3.35 3.812-11.555 6.24c-11.425 3.38-18.72 3.235-20.685 3.12 0 0-5.546.23-8.898-1.273-3.352-1.5-8.205-4.967-8.205-14.906 0-3.35.81-6.124.81-6.124l14.097.115s-.694 4.97-.694 6.24c0 1.272-1.04 6.703 9.128 6.587 0-7.28-.115-17.218-.115-17.218L39.62 53.97v-6.934h19.992v-8.782H54.53s-5.547 5.2-8.667 8.32l-5.777-5.084s6.667-6.93 11.21-16.985c-2.66 1.04-7.28 3.12-7.28 3.12s-3.238 4.16-7.28 8.435c-2.89-1.618-9.94-4.97-9.94-4.97m121.794-6.007l-.114 6.587h64.826s7.048-4.276 7.048-8.436-5.43-5.315-9.13-5.546c-3.697-.23-14.097-.346-22.648.694-8.55 1.04-28.195 3.35-39.98 6.7M132.527 41.03V12.72h15.832v3.58s22.647-3.12 25.074-3.12V5.09h17.91v6.125s11.44-1.04 18.952-1.04c7.51 0 16.29 1.27 19.644 2.426 3.353 1.157 7.397 4.046 7.397 10.055 0 6.008-4.507 12.248-13.52 18.257-2.774-2.774-4.852-4.737-4.852-4.737l.115 2.657h-27.502v9.36h31.545v7.395h-31.545v22.07h42.87v9.13H132.413v-9.13h40.675V55.82h-28.08v-7.626h28.195V38.95H148.59v2.08h-16.06z"/><path d="M221.744 66.798c0 4.978-4.5 9.013-10.053 9.013-5.55 0-10.05-4.033-10.05-9.01 0-4.978 4.5-9.013 10.05-9.013 5.554 0 10.055 4.035 10.055 9.012m59.502-21.956c-4.16-6.24-10.054-10.17-10.054-10.17s3.12-3.466 4.74-6.124c3.352 2.312 6.932 4.854 10.745 7.627 3.35-5.662 7.742-15.6 7.742-15.6l12.943 6.472c-1.04 3.35-1.966 4.504-1.966 4.504s6.818 4.507 10.98 7.166c4.736-9.013 6.816-19.528 6.816-19.528l14.214 8.666s0-5.316-.23-7.51c-.23-7.744-8.667-8.667-13.175-8.552-4.506.115-14.445 1.963-25.652 4.39-11.21 2.427-28.89 10.285-28.89 10.285v29.47c6.24-3.814 8.667-6.82 11.787-11.094m-11.67 14.214v27.618H251.78V9.716h17.68v6.702s17.218-6.586 28.89-9.014c11.67-2.426 18.372-2.426 21.146-2.426 2.772 0 14.214 1.27 20.684 3.698 6.47 2.426 11.093 7.28 12.942 12.48 1.85 5.2 1.964 19.412 1.964 26 0 6.586-.46 26.807-1.155 30.736-.69 3.93-2.31 8.436-5.777 10.98-3.465 2.54-8.435 1.962-12.94 1.04-4.51-.926-9.824-2.89-14.33-5.316v-7.628s4.39 3.12 8.78 3.12c4.394 0 7.86-2.657 7.86-8.55 0-5.894.576-31.2.115-41.6-2.888 4.62-8.898 12.825-11.555 15.83 3.58 2.542 7.86 6.472 10.4 9.476-3.35 3.004-12.364 10.4-12.364 10.4s-5.317-8.09-6.588-9.59c-1.386 1.616-9.937 11.09-23.34 18.95-2.312-3.35-5.548-7.51-5.548-7.51s10.054-3.467 22.302-19.76c-2.657-2.775-6.586-7.86-10.052-10.17-1.388 1.965-5.433 6.24-5.433 6.24s3.7 2.773 6.357 7.626c-2.312 2.312-9.475 9.708-9.475 9.708l-5.778-8.898s-6.355 6.702-12.25 10.977c-2.886-2.773-4.736-4.16-4.736-4.16M10.275 112.922s1.722-6.28 8.46-6.028c6.738.253 11.702.608 15.603.608 3.9 0 12.765-.86 13.727-1.217-.456 1.874-2.582 5.472-5.723 5.472h-7.144s-1.67-.05-1.67 2.026v24.77s.455 3.396 3.747 2.585c-1.063 2.887-3.8 4.56-6.99 4.56-3.19 0-6.332-2.028-6.332-4.814v-27.506c0-1.42-.203-1.774-2.736-1.875-1.52-.06-4.448-.204-6.99.1-1.642.197-2.938.802-3.952 1.32m47.873 14.84c-3.19 0-5.775 3.04-5.775 6.79s2.585 6.787 5.775 6.787c3.19 0 5.775-3.038 5.775-6.787 0-3.75-2.585-6.79-5.775-6.79m-12.056-8.306c.3-1.047.86-2.837 3.09-4.104 2.47-1.405 6.128-1.47 7.446-1.47 1.317 0 5.472.256 6.737.61 1.267.354 8.51 1.47 8.51 9.422v14.994s.305 3.14 3.496 2.126c-.454 3.09-3.494 4.66-5.67 4.66-2.18 0-5.725-1.318-5.725-4.002 0 0-1.42 4.508-9.018 4.458-7.598-.05-11.702-4.61-11.702-11.398 0-6.788 4.914-11.498 12.16-11.498 2.43 0 6.736.962 8.56 3.85.016-3.545-.64-8.37-6.09-8.877-2.797-.18-8.396-.06-11.792 1.226m122.055 8.308c-3.19 0-5.775 3.04-5.775 6.79 0 3.748 2.585 6.786 5.775 6.786 3.19 0 5.775-3.038 5.775-6.787 0-3.75-2.585-6.79-5.775-6.79m-12.057-8.306c.3-1.047.864-2.837 3.09-4.104 2.473-1.405 6.13-1.47 7.45-1.47 1.316 0 5.47.256 6.736.61s8.51 1.47 8.51 9.422v14.994s.305 3.14 3.495 2.126c-.454 3.09-3.494 4.66-5.67 4.66-2.18 0-5.725-1.318-5.725-4.002 0 0-1.42 4.508-9.017 4.458-7.6-.05-11.703-4.61-11.703-11.398 0-6.788 4.914-11.498 12.16-11.498 2.43 0 6.736.962 8.56 3.85.016-3.545-.64-8.37-6.09-8.877-2.797-.18-8.396-.06-11.792 1.226m-61.673-.76c-3.442 0-6.23 5.103-6.23 11.398s2.788 11.398 6.23 11.398c3.44 0 6.23-5.103 6.23-11.398s-2.79-11.397-6.23-11.397m15.805 11.397c0 9.038-7.077 16.363-15.805 16.363-8.73 0-15.805-7.325-15.805-16.363 0-9.036 7.076-16.362 15.805-16.362 8.728 0 15.805 7.326 15.805 16.362m93.882-11.397c-3.44 0-6.23 5.102-6.23 11.397s2.79 11.398 6.23 11.398c3.44 0 6.23-5.103 6.23-11.398s-2.79-11.397-6.23-11.397m15.805 11.397c0 9.038-7.076 16.363-15.805 16.363-8.73 0-15.805-7.325-15.805-16.363 0-9.036 7.076-16.362 15.805-16.362 8.73 0 15.805 7.326 15.805 16.362m65.445-11.397c-3.44 0-6.23 5.102-6.23 11.397s2.79 11.398 6.23 11.398c3.44 0 6.23-5.103 6.23-11.398s-2.79-11.397-6.23-11.397m15.805 11.397c0 9.038-7.076 16.363-15.805 16.363-8.73 0-15.805-7.325-15.805-16.363 0-9.036 7.076-16.362 15.805-16.362 8.73 0 15.805 7.326 15.805 16.362m-175.632-6.438c-.947 2.904-.442 10.862 0 12.378.443 1.516 2.084 5.305 6.315 5.305 4.232 0 5.684-4.17 6-5.56.316-1.388.947-5.05-.19-11.367-1.136-6.314-5.936-5.81-5.936-5.81-3.475.065-5.243 2.15-6.19 5.052m-12.694-16.04s.63-4.672 6-4.672c5.367 0 6.44 3.41 6.44 4.294v10.482s2.275-3.41 9.22-3.41c6.947 0 13.325 4.927 13.325 14.21 0 0 1.455 17.364-13.702 17.364-4.927 0-7.768-1.64-9.22-4.04-.948 2.463-3.16 3.85-5.81 3.85-2.653 0-5.81-1.64-5.81-4.61 1.136.128 3.283.064 3.283-2.715v-28.543s-.25-2.212-3.725-2.212m119.983 34.04c0 2.406-1.98 4.356-4.42 4.356s-4.42-1.95-4.42-4.355c0-2.406 1.98-4.356 4.42-4.356s4.42 1.95 4.42 4.355m32.272-.442s-1.58-1.704-3.033-1.642c-1.452.064-2.208.57-3.03.886-.822.315-2.59.946-4.17.946-1.577 0-4.482-.63-6.63-3.914-2.168-3.317-2.148-9.788-1.452-12.503.695-2.717 2.336-4.8 4.23-6 1.895-1.198 5.495-.757 6.76.253 1.26 1.01 1.83 2.904 4.166 2.904 2.338 0 3.663-2.777 3.286-4.672 0 0-3.79-3.092-11.62-3.158-7.325-.062-11.493 3.915-12.82 5.494-1.326 1.58-3.85 5.367-3.85 10.42 0 5.052 2.525 10.167 5.556 12.504 3.012 2.32 7.452 3.473 10.736 3.473 3.284 0 8.336-1.135 11.873-4.987m39.027-22.106s.695-4.736 6.125-4.736c4.484 0 5.684 3.348 5.684 3.348s2.78-3.664 8.588-3.664c5.81 0 8.464 2.78 9.537 4.23 1.896-1.83 3.854-4.166 9.158-4.166 5.305 0 9.79 1.832 10.294 7.136.506 5.304.317 18.312.317 18.312s.44 2.527 3.22 1.453c.25 2.842-2.717 4.674-5.685 4.674-2.967 0-5.936-1.768-5.936-5.494v-17.745s.064-4.105-4.8-4.105c-4.86 0-5.37 4.482-5.37 5.872v21.282h-8.65V122.52s-.063-4.23-4.547-4.23-5.684 3.725-5.684 5.557v21.47h-8.588v-23.554s.19-2.59-3.663-2.653"/></g></svg>