<svg xmlns="http://www.w3.org/2000/svg" width="171.505" height="139.378"><path d="M171.505 16.5c-6.31 2.798-13.09 4.69-20.208 5.54 7.264-4.355 12.844-11.25 15.47-19.467-6.8 4.033-14.33 6.96-22.344 8.538C138.005 4.273 128.86 0 118.74 0 99.308 0 83.553 15.754 83.553 35.185c0 2.758.31 5.444.912 8.02C55.22 41.736 29.295 27.727 11.94 6.44c-3.03 5.197-4.764 11.24-4.764 17.69 0 12.207 6.21 22.977 15.653 29.286-5.77-.182-11.194-1.765-15.938-4.4-.004.146-.004.294-.004.442 0 17.048 12.13 31.268 28.225 34.503-2.952.805-6.06 1.235-9.27 1.235-2.267 0-4.47-.222-6.62-.632 4.478 13.98 17.472 24.152 32.87 24.435-12.042 9.438-27.214 15.063-43.7 15.063-2.84 0-5.64-.166-8.393-.49 15.572 9.983 34.067 15.808 53.938 15.808 64.72 0 100.113-53.615 100.113-100.113 0-1.526-.034-3.043-.1-4.553 6.873-4.96 12.838-11.157 17.555-18.213z" fill="#2aa9e0"/></svg>