<svg version="1" xmlns="http://www.w3.org/2000/svg" width="540" height="122.523" viewBox="0 0 540 122.523"><path fill="#00749A" d="M313.19 48.227h-21.257v2.255c6.65 0 7.718 1.425 7.718 9.857v15.2c0 8.43-1.067 9.975-7.717 9.975-5.105-.712-8.55-3.444-13.3-8.67l-5.462-5.936c7.363-1.31 11.28-5.94 11.28-11.165 0-6.53-5.58-11.518-16.03-11.518h-20.9v2.255c6.65 0 7.718 1.425 7.718 9.857v15.2c0 8.43-1.07 9.975-7.718 9.975v2.256h23.63v-2.255c-6.648 0-7.717-1.544-7.717-9.975v-4.274h2.018l13.183 16.505h34.557c16.98 0 24.344-9.023 24.344-19.83 0-10.807-7.362-19.713-24.344-19.713zm-49.756 19.355V51.79h4.868c5.343 0 7.72 3.68 7.72 7.956 0 4.157-2.377 7.837-7.72 7.837h-4.868zm50.113 16.508h-.832c-4.274 0-4.868-1.068-4.868-6.53V51.79h5.7c12.35 0 14.605 9.024 14.605 16.03 0 7.244-2.256 16.27-14.605 16.27zM181.378 71.978l8.194-24.227c2.376-7.005 1.307-9.023-6.293-9.023V36.35h22.324v2.377c-7.48 0-9.262 1.78-12.23 10.45l-13.54 40.613h-1.543l-12.113-37.17-12.35 37.17h-1.543l-13.18-40.613c-2.85-8.67-4.75-10.45-11.64-10.45V36.35h26.364v2.377c-7.007 0-8.908 1.662-6.413 9.024l7.956 24.228 11.995-35.627h2.257l11.756 35.628zM221.752 89.314c-13.062 0-23.75-9.618-23.75-21.376 0-11.637 10.69-21.257 23.75-21.257 13.063 0 23.75 9.62 23.75 21.258 0 11.758-10.687 21.376-23.75 21.376zm0-38.95c-10.924 0-14.725 9.856-14.725 17.575 0 7.838 3.8 17.575 14.725 17.575 11.045 0 14.845-9.737 14.845-17.576 0-7.72-3.8-17.575-14.845-17.575z"/><path fill="#464342" d="M366.864 85.396v2.375H339.67v-2.374c7.957 0 9.382-2.018 9.382-13.895V52.503c0-11.877-1.425-13.776-9.382-13.776V36.35h24.58c12.232 0 19.003 6.294 19.003 14.727 0 8.194-6.77 14.606-19.002 14.606h-6.768V71.5c0 11.878 1.425 13.896 9.382 13.896zm-2.613-44.77h-6.768v20.663h6.77c6.65 0 9.737-4.632 9.737-10.213 0-5.7-3.088-10.452-9.74-10.452zM464.833 76.61l-.594 2.136c-1.07 3.92-2.377 5.344-10.808 5.344h-1.663c-6.175 0-7.244-1.425-7.244-9.856v-5.462c9.263 0 9.976.83 9.976 7.006h2.256V58.083h-2.256c0 6.175-.713 7.006-9.976 7.006v-13.3h6.53c8.433 0 9.738 1.425 10.807 5.344l.595 2.255h1.9l-.83-11.163h-34.915v2.255c6.65 0 7.72 1.425 7.72 9.857v15.2c0 7.713-.91 9.656-6.152 9.933-4.982-.76-8.403-3.48-13.084-8.627l-5.463-5.937c7.363-1.31 11.282-5.94 11.282-11.165 0-6.53-5.58-11.518-16.03-11.518h-20.9v2.255c6.648 0 7.717 1.425 7.717 9.857v15.2c0 8.43-1.068 9.975-7.718 9.975v2.256h23.632v-2.255c-6.65 0-7.72-1.544-7.72-9.975v-4.274h2.02l13.18 16.505h48.807l.713-11.16h-1.783zm-62.937-9.028V51.79h4.868c5.344 0 7.72 3.68 7.72 7.956 0 4.157-2.376 7.837-7.72 7.837h-4.868zM488.94 89.314c-4.75 0-8.908-2.493-10.69-4.038-.593.595-1.66 2.376-1.898 4.038h-2.257V72.928h2.375c.95 7.837 6.412 12.468 13.42 12.468 3.8 0 6.887-2.137 6.887-5.7 0-3.086-2.73-5.462-7.6-7.718l-6.77-3.206c-4.75-2.258-8.312-6.177-8.312-11.4 0-5.7 5.344-10.57 12.707-10.57 3.92 0 7.243 1.426 9.263 3.088.593-.475 1.187-1.782 1.544-3.208h2.255v14.014h-2.494c-.83-5.582-3.918-10.213-10.21-10.213-3.326 0-6.415 1.9-6.415 4.87 0 3.087 2.494 4.75 8.195 7.362l6.53 3.206c5.7 2.732 7.956 7.128 7.956 10.69 0 7.48-6.53 12.704-14.487 12.704zM525.514 89.314c-4.75 0-8.908-2.493-10.688-4.038-.594.595-1.662 2.376-1.9 4.038h-2.256V72.928h2.375c.95 7.837 6.412 12.468 13.42 12.468 3.8 0 6.887-2.137 6.887-5.7 0-3.086-2.73-5.462-7.6-7.718l-6.77-3.206c-4.75-2.258-8.313-6.177-8.313-11.4 0-5.7 5.343-10.57 12.706-10.57 3.92 0 7.243 1.426 9.263 3.088.592-.475 1.186-1.782 1.54-3.208h2.258v14.014h-2.493c-.832-5.582-3.92-10.213-10.212-10.213-3.325 0-6.414 1.9-6.414 4.87 0 3.087 2.493 4.75 8.194 7.362l6.53 3.206c5.7 2.732 7.956 7.128 7.956 10.69 0 7.48-6.53 12.704-14.486 12.704z"/><g fill="#464342"><path d="M8.708 61.26c0 20.802 12.09 38.78 29.62 47.298l-25.07-68.686c-2.916 6.536-4.55 13.77-4.55 21.388zM96.74 58.608c0-6.495-2.333-10.993-4.334-14.494-2.664-4.33-5.16-7.995-5.16-12.324 0-4.83 3.663-9.328 8.824-9.328.233 0 .454.03.68.042C87.4 13.938 74.945 8.708 61.263 8.708c-18.36 0-34.513 9.42-43.91 23.688 1.233.037 2.395.063 3.382.063 5.497 0 14.006-.668 14.006-.668 2.833-.167 3.167 3.994.337 4.33 0 0-2.847.334-6.015.5L48.2 93.547l11.5-34.493-8.187-22.434c-2.83-.166-5.51-.5-5.51-.5-2.833-.167-2.5-4.497.33-4.33 0 0 8.68.667 13.844.667 5.496 0 14.006-.667 14.006-.667 2.835-.167 3.168 3.994.337 4.33 0 0-2.853.334-6.015.5l18.992 56.494 5.242-17.517c2.27-7.27 4-12.49 4-16.99zM62.184 65.857l-15.768 45.82c4.708 1.383 9.687 2.14 14.846 2.14 6.12 0 11.99-1.058 17.452-2.98-.14-.224-.27-.463-.374-.723L62.184 65.857zM107.376 36.046c.226 1.674.354 3.47.354 5.404 0 5.333-.996 11.328-3.996 18.824L87.68 106.687c15.625-9.11 26.134-26.038 26.134-45.426 0-9.136-2.333-17.728-6.438-25.214z"/><path d="M61.262 0C27.482 0 0 27.48 0 61.26c0 33.783 27.483 61.263 61.262 61.263 33.778 0 61.265-27.48 61.265-61.263C122.527 27.48 95.04 0 61.262 0zm0 119.715c-32.23 0-58.453-26.223-58.453-58.455 0-32.23 26.22-58.45 58.452-58.45 32.23 0 58.45 26.22 58.45 58.45 0 32.232-26.22 58.455-58.45 58.455z"/></g></svg>