<svg version="1" xmlns="http://www.w3.org/2000/svg" height="239" width="600"><path d="M97.576 0H65.608C34.205 0 7.57 23.907 7.57 70.32c0 27.843 12.9 48.373 35.888 58.5L.562 206.447c-1.403 2.534 0 4.498 2.24 4.498h19.907c1.682 0 2.804-.56 3.365-1.964l38.973-76.226H79.07v76.226c0 .842.84 1.964 1.96 1.964h17.386c1.683 0 2.244-.842 2.244-2.244V2.814c.005-1.976-1.12-2.817-3.08-2.817zM79.07 114.76H67.295c-18.505 0-36.45-13.502-36.45-47.253C30.845 32.343 47.668 18 64.77 18h14.3v96.76z" fill="#ff0303"/><path d="M268.302 107.337c-1.968 33.753-7.57 61.313-21.87 85.785h40.65V87.647H269.14c0 4.78-.282 12.38-.838 19.69zM373.726 83.992c-9.814 0-15.705 12.09-18.225 35.996-.56 4.507-.56 8.723-.56 8.723s10.094-1.12 16.54-1.12h18.506s0-5.068-.276-9.566c-1.403-21.662-7.008-34.032-15.984-34.032z" fill="none"/><path d="M202.972 69.93H185.59c-1.408 0-2.245 1.123-2.245 1.964v53.724h-32.25V71.894c0-1.402-.557-1.963-1.96-1.963H131.75c-1.4 0-2.24.842-2.24 1.964v136.7c0 1.404.56 2.245 1.958 2.245h17.668c1.122 0 1.96-.842 1.96-2.245v-65.25h32.25v65.25c0 1.403.836 2.244 2.243 2.244h17.382c1.403 0 1.96-1.123 1.96-2.245v-136.7c0-1.123-.838-1.964-1.96-1.964zM599.88 201.84l-2.246-9.564c-.274-.84-.556-1.122-1.4-1.122-1.398 0-8.97 3.086-19.903 3.086-21.31 0-31.684-20.522-31.684-53.154 0-28.695 8.692-57.098 23.267-57.098 3.93 0 8.696 1.123 16.267 8.163.843.842 1.403 1.123 2.237 1.123.848 0 1.69-.57 2.53-1.973l7.57-12.37c.56-.85.843-1.7.843-2.542 0-1.122-1.125-1.964-2.807-2.805-11.495-5.91-19.348-7.03-26.08-7.03-26.352 0-46.82 31.497-46.82 80.715 0 42.475 19.625 66.942 47.664 66.942 11.782 0 24.397-5.62 29.443-9.284 1.12-.842 1.4-1.964 1.12-3.086zM478.033 133.486l33.65-61.596c.56-.84.277-1.963-.844-1.963H494.3c-4.773 0-6.454 1.683-8.132 5.34l-25.242 52.597c-1.4 3.095-2.8 5.06-4.204 5.91V71.886c0-1.122-.56-1.963-1.683-1.963h-18.225c-.837 0-1.68.84-1.68 1.963v136.98c0 .84.562 1.963 1.68 1.963h18.224c1.12 0 1.682-.843 1.682-1.965v-70.597c.842.56 1.403 1.403 1.968 2.534l31.963 65.81c1.682 3.376 4.207 4.218 7.853 4.218h17.94c1.125 0 1.403-1.122.847-1.963l-39.242-75.38zM317.37 193.122h-3.367c-4.207 0-5.325-1.683-5.325-5.058V71.896c0-1.403-.56-1.964-1.683-1.964h-56.078c-1.398 0-2.244.842-2.244 1.964v10.126c0 34.032-1.96 77.908-19.903 111.1h-6.17c-1.684 0-2.245.85-2.245 2.252v41.064c0 1.41 1.122 1.963 1.963 1.963h13.46c3.08 0 4.204-2.243 4.204-4.216V210.84h60.006v25.598c0 1.122.837 1.963 1.96 1.963h14.3c1.68 0 3.362-1.4 3.362-4.216v-38.81c0-1.402-.84-2.253-2.24-2.253zm-30.287 0h-40.65c14.3-24.468 19.9-52.03 21.87-85.785.556-7.31.837-14.91.837-19.69h17.943v105.475zM374.57 66.553c-30.278 0-43.74 38.25-43.74 79.873 0 42.476 19.067 67.785 47.105 67.785 13.736 0 25.798-5.337 31.965-9.283 1.122-.56 1.398-1.402 1.122-2.524l-2.242-9.563c-.28-1.122-.842-1.683-2.244-1.683-1.118 0-9.253 3.086-20.75 3.086-21.59 0-31.684-18.84-31.684-43.588v-6.66s10.936 1.312 17.383 1.312h40.94V133.49c0-43.59-15.427-66.934-37.854-66.934zm-3.087 61.035c-6.447 0-16.54 1.122-16.54 1.122s0-4.216.56-8.723c2.52-23.907 8.41-35.996 18.224-35.996 8.977 0 14.582 12.37 15.985 34.033.276 4.498.276 9.565.276 9.565h-18.505z"/></svg>